<?xml version="1.0" encoding="UTF-8"?>
<svg id="home" data-name="Layer 1" xmlns="http://www.w3.org/2000/svg" viewBox="0 0 150 150">
  <defs>
    <style>
      .cls-1 {
       fill: none;
        <!-- stroke: "#000"; -->
        stroke-miterlimit: 3;
        <!-- stroke-width: 5px; -->
      }
    </style>
    <!-- <linearGradient id="MyGradient">
        <stop offset="5%" stop-color="#F30" />
        <stop offset="95%" stop-color="#FF6" />
      </linearGradient> -->
  </defs>
  <path class="cls-1" d="m111.86,59.58c1.62,0,3.13.3,4.55.9s2.65,1.43,3.7,2.47c1.05,1.04,1.88,2.27,2.49,3.67.6,1.4.91,2.91.91,4.52v30.84c0,4.78-.92,9.27-2.76,13.49-1.84,4.21-4.33,7.89-7.49,11.02-3.15,3.13-6.85,5.61-11.09,7.44s-8.77,2.74-13.58,2.74c-5.82,0-11.24-1.1-16.28-3.31-5.03-2.21-9.59-5.34-13.67-9.39l-28.62-28.43c-1.13-1.12-2-2.43-2.61-3.91-.61-1.49-.91-3.01-.91-4.58,0-1.69.32-3.26.97-4.73.65-1.46,1.52-2.74,2.61-3.82s2.37-1.94,3.85-2.56c1.47-.62,3.04-.93,4.7-.93s3.15.31,4.61.93c1.46.62,2.77,1.5,3.94,2.62l6.49,6.38V24.89c0-1.6.3-3.11.91-4.52.61-1.4,1.43-2.63,2.49-3.67s2.28-1.86,3.7-2.47,2.93-.9,4.55-.9,3.13.3,4.55.9c1.41.6,2.65,1.42,3.7,2.47,1.05,1.05,1.88,2.27,2.49,3.67.61,1.41.91,2.91.91,4.52v27.64c1.33-.44,2.63-.66,3.88-.66,2.02,0,3.9.47,5.64,1.41,1.74.94,3.13,2.26,4.18,3.94,1.82-1,3.72-1.51,5.7-1.51s3.9.47,5.64,1.42,3.13,2.26,4.18,3.94c1.82-1,3.72-1.51,5.7-1.51Z"/>
</svg>