<?xml version="1.0" encoding="UTF-8"?>
<svg id="svg-container" data-name="Layer 1" xmlns="http://www.w3.org/2000/svg" viewBox="0 0 150 150">
  <defs>
    <style>
      .cls-1 {
        fill: none;
        <!-- stroke: #000; -->
        stroke-miterlimit: 3;
        <!-- stroke-width: 5px; -->
      }
    </style>
  </defs>
  <metadata>
              <category>Category 2</category>
            </metadata>
  <path class="cls-1" d="m75,132.75c-4.77-2.67-9.25-5.35-14.02-8.56-4.77-2.94-8.97-6.15-13.18-9.63-4.21-3.48-8.13-7.22-11.78-10.96-3.65-4.01-6.73-8.02-9.25-12.57-2.52-4.55-4.77-9.36-6.17-14.17-1.4-5.08-2.24-10.43-2.24-16.04v-29.14c3.36,0,6.45,0,9.53-.27,2.8-.27,5.89-.8,8.69-1.34,2.8-.53,5.89-1.34,8.69-2.67,2.8-1.07,5.61-2.41,8.41-4.28,3.36-2.14,6.73-3.48,10.09-4.55,3.36-.8,7.01-1.34,11.22-1.34,1.96,0,3.93,0,5.61.27,1.68.27,3.65.53,5.33,1.07,1.68.8,3.36,1.34,5.05,2.14,1.68.8,3.36,1.6,5.05,2.67,2.8,1.6,5.61,3.21,8.41,4.28,2.8,1.07,5.61,1.87,8.69,2.67,2.8.53,5.89,1.07,8.97,1.34,3.08.27,6.17.27,9.53.27v28.88c0,5.61-.84,10.96-2.24,16.04-1.4,5.08-3.65,9.89-6.17,14.17-2.52,4.55-5.89,8.56-9.25,12.57-3.65,4.01-7.57,7.49-11.78,10.96-4.21,3.48-8.69,6.68-13.18,9.63-4.77,3.21-9.25,5.88-14.02,8.56Z"/>
</svg>